<?xml version="1.0" encoding="utf-8"?>
<!-- Generator: Adobe Illustrator 26.3.1, SVG Export Plug-In . SVG Version: 6.00 Build 0)  -->
<svg version="1.1" id="Layer_1" xmlns="http://www.w3.org/2000/svg" xmlns:xlink="http://www.w3.org/1999/xlink" x="0px" y="0px"
	 viewBox="0 0 822.1 354.2" style="enable-background:new 0 0 822.1 354.2;" xml:space="preserve">
<style type="text/css">
	.st0{fill:#242E3E;}
	.st1{fill:#959595;}
</style>
<g>
	<g>
		<g>
			<path class="st0" d="M43.7,225.1L0,4.4V0h61.2l15.3,141.7h4.4L96.1,0h61.2v4.4l-43.7,220.7v124.6H43.7V225.1z"/>
			<path class="st0" d="M150.2,179.2c0-34.4,6.4-61.9,19.2-82.6c12.8-20.7,31.9-31,57.2-31c23.3,0,40.6,7.9,51.8,23.8
				c11.2,15.9,16.8,36.3,16.8,61.4V212h-83.9v78.2c0,7.3,1.4,12.8,4.2,16.6c2.8,3.8,6.6,5.7,11.6,5.7c4.7,0,8.3-1.9,10.9-5.7
				c2.6-3.8,3.9-9,3.9-15.7v-28.8c0-10.8,0.9-18.8,2.6-24h51.6v4.4c-1.2,7-1.7,16.5-1.7,28.4c0,25.6-5.9,45.9-17.7,60.7
				c-11.8,14.9-28.9,22.3-51.4,22.3c-23.3,0-41.7-9.8-55.1-29.3c-13.4-19.5-20.1-46.2-20.1-80V179.2z M242,174.8v-45.4
				c0-7.3-1.3-12.8-3.9-16.6c-2.6-3.8-6.4-5.7-11.4-5.7c-5,0-8.7,1.9-11.4,5.7c-2.6,3.8-3.9,9.3-3.9,16.6v45.4H242z"/>
			<path class="st0" d="M302.6,71.2c15.7-1.2,26.6-6.3,32.6-15.3c6-9,9.7-23.3,11.1-42.8h41.5v56.8h30.6v37.1h-30.6V295
				c0,6.4,1.2,10.9,3.5,13.5c2.3,2.6,6.3,3.9,11.8,3.9h9.2l3.5,32.8c-10.8,5.8-23,8.7-36.7,8.7c-14.9,0-27-4.5-36.3-13.6
				c-9.3-9-14-24.2-14-45.4V107.1h-26.2V71.2z"/>
			<path class="st0" d="M491.4,69.9v279.7h-59V69.9H491.4z"/>
		</g>
		<path class="st1" d="M493.6,34.7L493.6,34.7c0,13.9-11.3,25.1-25.1,25.1h-13.1c-13.9,0-25.1-11.3-25.1-25.1v0
			c0-13.9,11.3-25.1,25.1-25.1h13.1C482.3,9.6,493.6,20.8,493.6,34.7z"/>
	</g>
</g>
<g>
	<g>
		<path class="st0" d="M565.2,97.3l-16.9-27.4h7.7L568.4,91l12.4-21.1h7.7l-16.8,27.4v17.6h-6.6V97.3z"/>
		<path class="st0" d="M586,99.2c0-8.4,4.7-16.6,14.7-16.6c10.7,0,14.1,8.5,14.1,15.8c0,1.1-0.1,2.2-0.2,2.7h-22
			c0.3,5,3,8.9,8.7,8.9c3.3,0,6-0.8,8.3-3.4l4.3,3.6c-3.5,3.7-7.4,5.3-12.6,5.3C590.9,115.5,586,107.8,586,99.2z M608.7,96.4
			c-0.3-4.8-2.7-8.7-8.1-8.7c-5.2,0-7.6,4-8.1,8.7H608.7z"/>
		<path class="st0" d="M621.2,83.1h6.2v4.2c1.7-3,4.9-4.8,8.4-4.8c4.2,0,7.5,2,9.4,6.2c2.2-4.1,5.9-6.2,10.2-6.2
			c8,0,11.4,6.3,11.4,13.3v19.2h-6.3V96.4c0-4.1-1.2-8.4-6-8.4c-4.7,0-7.4,4.6-7.4,9.4v17.6h-6.2V96.3c0-4.1-1.1-8.3-5.9-8.3
			s-7.5,4.9-7.5,9.9v17h-6.2V83.1z"/>
		<path class="st0" d="M672.7,99.2c0-8.4,4.7-16.6,14.7-16.6c10.7,0,14.1,8.5,14.1,15.8c0,1.1-0.1,2.2-0.2,2.7h-22
			c0.3,5,3,8.9,8.7,8.9c3.3,0,6-0.8,8.3-3.4l4.3,3.6c-3.5,3.7-7.4,5.3-12.6,5.3C677.6,115.5,672.7,107.8,672.7,99.2z M695.4,96.4
			c-0.3-4.8-2.7-8.7-8.1-8.7c-5.2,0-7.6,4-8.1,8.7H695.4z"/>
		<path class="st0" d="M707.9,83.1h6.1v4.7c2.3-3.4,5.9-5.3,9.8-5.3c7.9,0,11.1,6.3,11.1,13.2v19.2h-6.1V96.4c0-4.3-1.8-8.4-6.7-8.4
			c-4.7,0-8.1,3.2-8.1,10v16.9h-6.1V83.1z"/>
		<path class="st0" d="M553.8,147.1h29.5v5.8h-23.1v13.8h20.7v5.7h-20.7v13.6h23.1v6h-29.5V147.1z"/>
		<path class="st0" d="M588,176.3c0-8.4,4.7-16.6,14.5-16.6c6,0,10.7,3.2,13,8.9l-5.8,2.4c-0.9-3.5-3.7-5.8-7.2-5.8
			c-6,0-8.2,5.9-8.2,11.2c0,5.4,2.1,11.1,8.2,11.1c3.5,0,6.3-2.3,7.2-5.7l5.5,2.2c-2,5.6-6.6,8.9-12.6,8.9
			C592.8,192.8,588,184.8,588,176.3z"/>
		<path class="st0" d="M618.4,176.1c0-9,6.2-16.5,15.6-16.5c9.4,0,15.7,7.5,15.7,16.5c0,9-6.3,16.6-15.7,16.6
			C624.7,192.8,618.4,185.2,618.4,176.1z M643.4,176.1c0-5.8-2.8-11.2-9.3-11.2c-6.5,0-9.3,5.4-9.3,11.2c0,5.9,2.8,11.4,9.3,11.4
			C640.6,187.5,643.4,181.9,643.4,176.1z"/>
		<path class="st0" d="M656.1,160.3h6.1v4.7c2.3-3.4,5.9-5.3,9.8-5.3c7.9,0,11.1,6.3,11.1,13.2v19.2H677v-18.5
			c0-4.3-1.8-8.4-6.7-8.4c-4.7,0-8.1,3.2-8.1,10v16.9h-6.1V160.3z"/>
		<path class="st0" d="M688.9,176.1c0-9,6.2-16.5,15.6-16.5c9.4,0,15.7,7.5,15.7,16.5c0,9-6.3,16.6-15.7,16.6
			C695.1,192.8,688.9,185.2,688.9,176.1z M713.9,176.1c0-5.8-2.8-11.2-9.3-11.2c-6.5,0-9.3,5.4-9.3,11.2c0,5.9,2.8,11.4,9.3,11.4
			C711.1,187.5,713.9,181.9,713.9,176.1z"/>
		<path class="st0" d="M726.5,160.3h6.2v4.2c1.7-3,4.9-4.8,8.4-4.8c4.2,0,7.5,2,9.4,6.2c2.2-4.1,5.9-6.2,10.2-6.2
			c8,0,11.4,6.3,11.4,13.3v19.2h-6.3v-18.5c0-4.1-1.2-8.4-6-8.4c-4.7,0-7.4,4.6-7.4,9.4v17.6h-6.2v-18.7c0-4.1-1.1-8.3-5.9-8.3
			c-4.8,0-7.5,4.9-7.5,9.9v17h-6.2V160.3z"/>
		<path class="st0" d="M563.4,229.9h-14.7v-5.6h35.9v5.6h-14.7v39.4h-6.5V229.9z"/>
		<path class="st0" d="M584.9,237.5h6.1v5.5c1.5-3.9,5.2-6.2,9-6.2c2.2,0,4.1,0.7,5.4,1.9l-2.7,5.2c-1.1-0.8-2.3-1.2-3.7-1.2
			c-4.6,0-8.1,3.9-8.1,11.8v14.7h-6V237.5z"/>
		<path class="st0" d="M606.7,260c0-6.6,5.2-9.3,13.4-9.3h7.7c0-5.1-2.1-8.5-7.1-8.5c-4.1,0-6.7,2.4-8.2,4.7l-4.6-3.4
			c2.9-4.1,6.9-6.6,12.6-6.6c8.4,0,13.1,5.3,13.1,13.1v19.4h-5.1l-0.3-5.4c-2.5,4.4-6.4,6-10.6,6C611.4,270,606.7,266.3,606.7,260z
			 M627.9,255.3h-7.3c-5,0-7.5,1.7-7.5,4.9c0,3,2.2,4.5,5.4,4.5C624,264.7,627.8,259.9,627.9,255.3z"/>
		<path class="st0" d="M639.6,253.5c0-8.4,4.7-16.6,14.5-16.6c6,0,10.7,3.2,13,8.9l-5.8,2.4c-0.9-3.5-3.7-5.8-7.2-5.8
			c-6,0-8.2,5.9-8.2,11.2c0,5.4,2.1,11.1,8.2,11.1c3.5,0,6.3-2.3,7.2-5.7l5.5,2.2c-2,5.6-6.6,8.9-12.6,8.9
			C644.4,270,639.6,262,639.6,253.5z"/>
		<path class="st0" d="M672.7,224.3h6.2v28.5l13.2-15.3h7.9l-11.1,12l12.8,19.8h-7.3l-9.5-15.9l-5.9,6.6v9.3h-6.2V224.3z"/>
		<path class="st0" d="M705.9,224.3h6.7v6.6h-6.7V224.3z M706.1,237.5h6.1v31.8h-6.1V237.5z"/>
		<path class="st0" d="M720.9,237.5h6.1v4.7c2.3-3.4,5.9-5.3,9.8-5.3c7.9,0,11.1,6.3,11.1,13.2v19.2h-6.1v-18.5
			c0-4.3-1.8-8.4-6.7-8.4c-4.7,0-8.1,3.2-8.1,10v16.9h-6.1V237.5z"/>
		<path class="st0" d="M782,274c0,6.8-6.1,10.1-13.3,10.1c-8.8,0-14.3-4.8-14.3-11.1c0-0.6,0-0.9,0.1-1.3l4-3.9
			c-2.1-1.2-3.6-3.2-3.6-6.4c0-2.4,0.8-4.3,2.6-5.9c-1.7-1.9-2.7-4.5-2.7-7.3c0-6.8,5.6-11.4,12.5-11.4c3.1,0,5.8,0.9,7.9,2.5
			l4.8-4.2l3.3,4.1l-4.9,3.9c0.8,1.6,1.3,3.4,1.3,5.4c0,6.9-5.5,11.2-12.3,11.2c-2.2,0-4.2-0.4-6-1.3c-0.8,0.5-1.2,1.2-1.2,2.1
			c0,3,4,3.5,9,4.2C775.5,265.7,782,266.8,782,274z M776.3,274.6c0-3.2-3.9-3.5-9.1-4.3c-1.5-0.2-3.2-0.5-4.7-0.9l-2.7,3.7
			c0.2,3.3,3.7,5.8,9.1,5.8C773,279,776.3,277.6,776.3,274.6z M761.2,248.3c0,3.8,2.3,6.4,6.2,6.4c3.9,0,6.2-2.6,6.2-6.4
			c0-3.7-2.3-6.6-6.2-6.6C763.5,241.8,761.2,244.7,761.2,248.3z"/>
		<path class="st0" d="M553.8,301.5h6.5v45h-6.5V301.5z"/>
		<path class="st0" d="M570.2,314.7h6.1v4.7c2.3-3.4,5.9-5.3,9.8-5.3c7.9,0,11.1,6.3,11.1,13.2v19.2h-6.1V328c0-4.3-1.8-8.4-6.7-8.4
			c-4.7,0-8.1,3.2-8.1,10v16.9h-6.1V314.7z"/>
		<path class="st0" d="M605.1,301.5h6.7v6.6h-6.7V301.5z M605.3,314.7h6.1v31.8h-6.1V314.7z"/>
		<path class="st0" d="M621.4,337.9v-18.1h-5.1v-5.1h5.2v-7.5l6.1-5v12.5h8.1v5.1h-8.1v17.5c0,3.3,1.7,4.6,3.8,4.6
			c1.3,0,2.8-0.5,3.8-1v5.5c-0.9,0.4-2.9,0.8-5,0.8C624.3,347.2,621.4,343.5,621.4,337.9z"/>
		<path class="st0" d="M640.8,301.5h6.7v6.6h-6.7V301.5z M641.1,314.7h6.1v31.8h-6.1V314.7z"/>
		<path class="st0" d="M653.4,337.2c0-6.6,5.2-9.3,13.4-9.3h7.7c0-5.1-2.1-8.5-7.1-8.5c-4.1,0-6.7,2.4-8.2,4.7l-4.6-3.4
			c2.9-4.1,6.9-6.6,12.6-6.6c8.4,0,13.1,5.3,13.1,13.1v19.4h-5.1l-0.3-5.4c-2.5,4.4-6.4,6-10.6,6C658,347.2,653.4,343.5,653.4,337.2
			z M674.5,332.5h-7.3c-5,0-7.5,1.7-7.5,4.9c0,3,2.2,4.5,5.4,4.5C670.6,342,674.4,337.1,674.5,332.5z"/>
		<path class="st0" d="M689.3,337.9v-18.1h-5.1v-5.1h5.2v-7.5l6.1-5v12.5h8.1v5.1h-8.1v17.5c0,3.3,1.7,4.6,3.8,4.6
			c1.3,0,2.8-0.5,3.8-1v5.5c-0.9,0.4-2.9,0.8-5,0.8C692.1,347.2,689.3,343.5,689.3,337.9z"/>
		<path class="st0" d="M708.7,301.5h6.7v6.6h-6.7V301.5z M708.9,314.7h6.1v31.8h-6.1V314.7z"/>
		<path class="st0" d="M719.6,314.7h6.8l8.3,23.8l8.3-23.8h6.6l-12.4,31.8H732L719.6,314.7z"/>
		<path class="st0" d="M750.7,330.8c0-8.4,4.7-16.6,14.7-16.6c10.7,0,14.1,8.5,14.1,15.8c0,1.1-0.1,2.2-0.2,2.7h-22
			c0.3,5,3,8.9,8.7,8.9c3.3,0,6-0.8,8.3-3.4l4.3,3.6c-3.5,3.7-7.4,5.3-12.6,5.3C755.6,347.1,750.7,339.4,750.7,330.8z M773.4,328
			c-0.3-4.8-2.7-8.7-8.1-8.7c-5.2,0-7.6,4-8.1,8.7H773.4z"/>
	</g>
	<path class="st0" d="M791.9,176c0-8.4,4.7-16.6,14.5-16.6c6,0,10.7,3.2,13,8.9l-5.8,2.4c-0.9-3.5-3.7-5.8-7.2-5.8
		c-6,0-8.2,5.9-8.2,11.2c0,5.4,2.1,11.1,8.2,11.1c3.5,0,6.3-2.3,7.2-5.7l5.5,2.2c-2,5.6-6.6,8.9-12.6,8.9
		C796.7,192.5,791.9,184.5,791.9,176z"/>
	<path class="st0" d="M779.4,146.8h6.7v6.6h-6.7V146.8z M779.7,160h6.1v31.8h-6.1V160z"/>
</g>
</svg>
